# xmcd CD database file
#
# Track frame offsets:
#	150
#	19092
#	36924
#	57900
#	87659
#	112779
#	138480
#	160674
#	194222
#	224582
#	243388
#	262510
#	293694
#	321454
#
# Disc length: 4668 seconds
#
# Revision: 8
# Processed by: cddbd v1.5.2PL0 Copyright (c) Steve Scherf et al.
# Submitted via: CDex 1.50
#
DISCID=cd123a0e
DTITLE=Dan Brown - Das verlorene Symbol CD06
DYEAR=2009
DGENRE=Hörbuch
TTITLE0=601 Das verlorene Symbol
TTITLE1=602 Das verlorene Symbol
TTITLE2=603 Das verlorene Symbol
TTITLE3=604 Das verlorene Symbol
TTITLE4=605 Das verlorene Symbol
TTITLE5=606 Das verlorene Symbol
TTITLE6=607 Das verlorene Symbol
TTITLE7=608 Das verlorene Symbol
TTITLE8=609 Das verlorene Symbol
TTITLE9=610 Das verlorene Symbol
TTITLE10=611 Das verlorene Symbol
TTITLE11=612 Das verlorene Symbol
TTITLE12=613 Das verlorene Symbol
TTITLE13=614 Das verlorene Symbol
EXTD=YEAR: 2009
EXTT0=
EXTT1=
EXTT2=
EXTT3=
EXTT4=
EXTT5=
EXTT6=
EXTT7=
EXTT8=
EXTT9=
EXTT10=
EXTT11=
EXTT12=
EXTT13=
PLAYORDER=
